<?xml version="1.0" encoding="utf-8"?>
<!-- Generator: Adobe Illustrator 16.0.3, SVG Export Plug-In . SVG Version: 6.00 Build 0)  -->
<!DOCTYPE svg PUBLIC "-//W3C//DTD SVG 1.1//EN" "http://www.w3.org/Graphics/SVG/1.1/DTD/svg11.dtd" [
	<!ENTITY ns_extend "http://ns.adobe.com/Extensibility/1.0/">
	<!ENTITY ns_ai "http://ns.adobe.com/AdobeIllustrator/10.0/">
	<!ENTITY ns_graphs "http://ns.adobe.com/Graphs/1.0/">
	<!ENTITY ns_vars "http://ns.adobe.com/Variables/1.0/">
	<!ENTITY ns_imrep "http://ns.adobe.com/ImageReplacement/1.0/">
	<!ENTITY ns_sfw "http://ns.adobe.com/SaveForWeb/1.0/">
	<!ENTITY ns_custom "http://ns.adobe.com/GenericCustomNamespace/1.0/">
	<!ENTITY ns_adobe_xpath "http://ns.adobe.com/XPath/1.0/">
]>
<svg version="1.1" id="Layer_1" xmlns:x="&ns_extend;" xmlns:i="&ns_ai;" xmlns:graph="&ns_graphs;"
	 xmlns="http://www.w3.org/2000/svg" xmlns:xlink="http://www.w3.org/1999/xlink" x="0px" y="0px" width="655.078px"
	 height="166.591px" viewBox="0 0 655.078 166.591" enable-background="new 0 0 655.078 166.591" xml:space="preserve">
<metadata><?xpacket begin="﻿" id="W5M0MpCehiHzreSzNTczkc9d"?>
<x:xmpmeta xmlns:x="adobe:ns:meta/" x:xmptk="Adobe XMP Core 5.3-c011 66.145661, 2012/02/06-14:56:27        ">
   <rdf:RDF xmlns:rdf="http://www.w3.org/1999/02/22-rdf-syntax-ns#">
      <rdf:Description rdf:about=""
            xmlns:xmpMM="http://ns.adobe.com/xap/1.0/mm/"
            xmlns:stRef="http://ns.adobe.com/xap/1.0/sType/ResourceRef#"
            xmlns:stEvt="http://ns.adobe.com/xap/1.0/sType/ResourceEvent#">
         <xmpMM:RenditionClass>proof:pdf</xmpMM:RenditionClass>
         <xmpMM:DocumentID>xmp.did:4DE5223599BFE711835EF9A6048FE882</xmpMM:DocumentID>
         <xmpMM:InstanceID>xmp.iid:4DE5223599BFE711835EF9A6048FE882</xmpMM:InstanceID>
         <xmpMM:OriginalDocumentID>uuid:64bf216e-6ba4-4440-9f7f-99ac2fcc17fd</xmpMM:OriginalDocumentID>
         <xmpMM:DerivedFrom rdf:parseType="Resource">
            <stRef:instanceID>xmp.iid:881CA7EE8781E71197D1D26DAA539EBA</stRef:instanceID>
            <stRef:documentID>xmp.did:881CA7EE8781E71197D1D26DAA539EBA</stRef:documentID>
            <stRef:originalDocumentID>uuid:64bf216e-6ba4-4440-9f7f-99ac2fcc17fd</stRef:originalDocumentID>
            <stRef:renditionClass>proof:pdf</stRef:renditionClass>
         </xmpMM:DerivedFrom>
         <xmpMM:History>
            <rdf:Seq>
               <rdf:li rdf:parseType="Resource">
                  <stEvt:action>saved</stEvt:action>
                  <stEvt:instanceID>xmp.iid:413053fb-34cf-47b9-a87f-c6d58507735f</stEvt:instanceID>
                  <stEvt:when>2016-06-20T10:25:44+03:00</stEvt:when>
                  <stEvt:softwareAgent>Adobe Illustrator CC 2015 (Macintosh)</stEvt:softwareAgent>
                  <stEvt:changed>/</stEvt:changed>
               </rdf:li>
               <rdf:li rdf:parseType="Resource">
                  <stEvt:action>converted</stEvt:action>
                  <stEvt:parameters>from application/postscript to application/vnd.adobe.illustrator</stEvt:parameters>
               </rdf:li>
               <rdf:li rdf:parseType="Resource">
                  <stEvt:action>converted</stEvt:action>
                  <stEvt:parameters>from application/postscript to application/vnd.adobe.illustrator</stEvt:parameters>
               </rdf:li>
               <rdf:li rdf:parseType="Resource">
                  <stEvt:action>saved</stEvt:action>
                  <stEvt:instanceID>xmp.iid:841CA7EE8781E71197D1D26DAA539EBA</stEvt:instanceID>
                  <stEvt:when>2017-08-15T10:10:30+03:00</stEvt:when>
                  <stEvt:softwareAgent>Adobe Illustrator CS6 (Windows)</stEvt:softwareAgent>
                  <stEvt:changed>/</stEvt:changed>
               </rdf:li>
               <rdf:li rdf:parseType="Resource">
                  <stEvt:action>saved</stEvt:action>
                  <stEvt:instanceID>xmp.iid:4DE5223599BFE711835EF9A6048FE882</stEvt:instanceID>
                  <stEvt:when>2017-11-02T08:44+02:00</stEvt:when>
                  <stEvt:softwareAgent>Adobe Illustrator CS6 (Windows)</stEvt:softwareAgent>
                  <stEvt:changed>/</stEvt:changed>
               </rdf:li>
            </rdf:Seq>
         </xmpMM:History>
      </rdf:Description>
      <rdf:Description rdf:about=""
            xmlns:xmp="http://ns.adobe.com/xap/1.0/"
            xmlns:xmpGImg="http://ns.adobe.com/xap/1.0/g/img/">
         <xmp:CreateDate>2017-11-02T08:43:59+02:00</xmp:CreateDate>
         <xmp:CreatorTool>Adobe Illustrator CS6 (Windows)</xmp:CreatorTool>
         <xmp:ModifyDate>2017-11-02T08:44+02:00</xmp:ModifyDate>
         <xmp:MetadataDate>2017-11-02T08:44+02:00</xmp:MetadataDate>
         <xmp:Thumbnails>
            <rdf:Alt>
               <rdf:li rdf:parseType="Resource">
                  <xmpGImg:width>256</xmpGImg:width>
                  <xmpGImg:height>60</xmpGImg:height>
                  <xmpGImg:format>JPEG</xmpGImg:format>
                  <xmpGImg:image>/9j/4AAQSkZJRgABAgEASABIAAD/7QAsUGhvdG9zaG9wIDMuMAA4QklNA+0AAAAAABAASAAAAAEA&#xA;AQBIAAAAAQAB/+4ADkFkb2JlAGTAAAAAAf/bAIQABgQEBAUEBgUFBgkGBQYJCwgGBggLDAoKCwoK&#xA;DBAMDAwMDAwQDA4PEA8ODBMTFBQTExwbGxscHx8fHx8fHx8fHwEHBwcNDA0YEBAYGhURFRofHx8f&#xA;Hx8fHx8fHx8fHx8fHx8fHx8fHx8fHx8fHx8fHx8fHx8fHx8fHx8fHx8fHx8f/8AAEQgAPAEAAwER&#xA;AAIRAQMRAf/EAaIAAAAHAQEBAQEAAAAAAAAAAAQFAwIGAQAHCAkKCwEAAgIDAQEBAQEAAAAAAAAA&#xA;AQACAwQFBgcICQoLEAACAQMDAgQCBgcDBAIGAnMBAgMRBAAFIRIxQVEGE2EicYEUMpGhBxWxQiPB&#xA;UtHhMxZi8CRygvElQzRTkqKyY3PCNUQnk6OzNhdUZHTD0uIIJoMJChgZhJRFRqS0VtNVKBry4/PE&#xA;1OT0ZXWFlaW1xdXl9WZ2hpamtsbW5vY3R1dnd4eXp7fH1+f3OEhYaHiImKi4yNjo+Ck5SVlpeYmZ&#xA;qbnJ2en5KjpKWmp6ipqqusra6voRAAICAQIDBQUEBQYECAMDbQEAAhEDBCESMUEFURNhIgZxgZEy&#xA;obHwFMHR4SNCFVJicvEzJDRDghaSUyWiY7LCB3PSNeJEgxdUkwgJChgZJjZFGidkdFU38qOzwygp&#xA;0+PzhJSktMTU5PRldYWVpbXF1eX1RlZmdoaWprbG1ub2R1dnd4eXp7fH1+f3OEhYaHiImKi4yNjo&#xA;+DlJWWl5iZmpucnZ6fkqOkpaanqKmqq6ytrq+v/aAAwDAQACEQMRAD8A9U4qx3zP5107RKwAfWb8&#xA;iogU0C16Fz2+XXNL2n21j0vp+rJ3d3vcfNqBDbq851Xzp5i1Fm9S6aCI9IYKxqB4VHxH6TnFartr&#xA;U5jvLhHdHb9vzcCeonLqkju7sWdizHqSanNWSTuWlXtNRv7Ng1pcywMO8bsv6jluLU5MZuEjH3FM&#xA;Zkciy3QvzM1C3dYtVX61B0MygLKo+iit+HzzotD7TZIGsw449/X9RcrHqyPq3ekWF/Z39ql1aSia&#xA;CQfC6/qI7EeGdtg1EM0BOBuJdhGQkLCvlzJ2KuxV2KuxV2KuxV2KuxV2KuxV2KuxV2KuxV2KuxV2&#xA;KuxV2KuxV2KuxV2KuxVjvnXzONE04CEg39zVbcHfiB9pyPbt75pe2u0/yuL0/wB5Ll5ebj6jNwDb&#xA;m8ekkkkkaSRi8jks7sakk7kknPNpSMjZ3JdUSjbbQtZuoVmt7KaWFvsyKhINNtjmXi7P1GSPFGEj&#xA;E9aZjHI7gKn+GfMP/VuuP+RbZZ/JOq/1OfyT4M+4u/wz5h/6t1x/yLbH+SdV/qc/kvgz7igruzu7&#xA;Sb0bqF4ZQAeDgqaHod8xM2CeKXDMGJ82Eokc038p+Zp9D1AOSWspiFuoh4fzL/lLmw7J7Tlpcl/w&#xA;H6h+n3htwZjA+T2aKWOWJJY2DxyKGRxuCpFQRnpsZCQBG4LtgbXZJKWP5n8vRuyPqNuHUkMPUXYj&#xA;r3zBl2npgaOSPzazmh3hr/FXlv8A6uVv/wAjFyP8q6X/AFSHzR40O8Iux1LT79GeyuI7hUNHMbBq&#xA;E+NMycGpx5QTCQlXczjMS5FbfaxpVg6peXcVu7iqrI4UkDvQ5HPrMOIgTlGJPeUSnGPModPM/l12&#xA;4rqVtU+MqD9ZyodqaY/5SH+mCPGh3hMY5I5EDxsHRt1ZSCCPYjM2MhIWDYbAV2FXYqh7XUbC7aRb&#xA;W4jnaI8ZBGwYqfemU4tTjyEiEhKudFjGYPIojLmSldXdtaQNPcyrDCn2pHIVRXYbnK8uWGOPFMiM&#xA;e8oMgBZatLy0vIRPazJPCTQSRsGFR1FRgxZoZI8UCJDyWMgdwrZalTubq2tYWnuZVhhT7UjkKo+k&#xA;5Xkyxxx4pECI70EgblbZ3tneQie0mSeEkjnGwYVHUbYMOeGWPFAiQ8ljIHcK2WpULy/srKL1bueO&#xA;3jJoHkYKCT23yrNnx4hc5CI82MpAc1ZHR1DowZGFVYGoIPcHLAQRYZN4VQk2r6XDdrZzXcUd01OM&#xA;LOoc8umxPfMaeswxnwSlET7r3YGcQavdF5ks3YqhLjV9LtrlLa4u4orh6cIndQx5Gg2J75jZNZhh&#xA;IQlKIkelsDOINEvIvOuqNqPmK6etYoGMEI7BYzQ0+bVOec9t6o5tTI9I+kfD9u7q9RPimUizVNDM&#xA;NK1DzymnQJauv1ZUAh5iMnh+z9relOmdRo9T2iMURA+itr4eXxcuEstbclG885ecLOcwXEypIADT&#xA;04yKHuCBlWftzX4pcMyAfcES1GQGiof4/wDM/wDy0J/yLT+mU/6I9Z/OH+lDH8zPvSrVdZ1DVZ1n&#xA;vZfUdF4rQBQB12Apmt1muy6mXFkNkNU8hkbKBzEYPV/y01RrvQ2tZDWSyfgv/GN/iX8ajPQfZnVH&#xA;Jp+A84GvgeX6XaaSdxruZdnRuU8i8ieX7DWtQuFv+TxQx8+CkryZjTcjfbPOewez8eqyS8SyIh1W&#xA;mxCZNs4/5V15U/5Zn/5Gyf1zqv8AQ5o/5p/0xc38rDuTLRvLmkaOZTYQ+m01PUYszEgdBVicztH2&#xA;bh01+GKv4tmPFGHJgPna1W889W9o7FUuDbwsw6gO3EkV+ecf23iGTtCMDylwD5uDqI3lA9zKZPy3&#xA;8rvHxWKWNv51kbl/w3Ifhm/l7N6QiqI+LknSQYxOuq+RtYi9OVrjSrg14HYMoNGBHQOviP7M0Uxm&#xA;7KzijxYpfb3/AOcO/wDscY8WGX9F6ZDNHNDHNE3KKVQ6MOhVhUHO6hMSiJDkXYg2k3nXVv0Z5euZ&#xA;FbjPMPQg8eUmxI+S1OavtrV+BppEfVL0j4/satRPhgWAeUZrnQvMGnvcjhBqcQ+RSUkIf+CUfRnI&#xA;dkTnpdTAz2jlj9h5faPk4OAmExfV63nortGHfmn/AMo9b/8AMWn/ACbkzmvar/Fo/wBcf7mTiaz6&#xA;B70n/LHUpLbUJ9JnqouUWeBT/MFDbf60Zr9Ga32Y1Jhklhl/EOIfL9I3+DVo50eE9XpOdu7B59+Z&#xA;2oyT3FnotvVnP76VR4mqoPoHI5xvtPqDOUMEefM/o/S4GslZEQr/AJUf8c+//wCMy/8AEcu9k/7u&#xA;f9Yfcy0XIs6zrHNeaefJrrWfMcWj2Q9Q2kbEqOhkKeo3/CqB884bt6c9TqRgx78APzqz9jrtSTOf&#xA;COiffltq31zQjaO1ZbFuHv6bfEn8R9Gbf2a1fiafgPPGa+B5fpDfpJ3Gu5ludE5Txrzqjt5r1EoC&#xA;SrKxp2AjXfPMu24k6zJX42DqNR9Zeo+WNWGq6Ha3ZNZSvCf/AIyJ8Lff1zvuy9X+Y08Z9a3945uy&#xA;wz4ogplNLHDE80jcY41Lux6BVFSczZzEQZHkGwmnhWsXs+o6hcalICFuZW4V7BaUX/YqVGeT6zPL&#xA;NkllP8RP9nwFOlySMiT3oN3Z3Z2NWYkk+5zGJs2WK3Ahmmh+Vddu9LguLfVBDDICUiVmbjv0NNgf&#xA;EZ1fZ/Y+pyYYyhl4YnpZczHhkY2Cqzflrqk0jSS6hHJI32nYMScsn7LZpG5ZAT8UnSSPVZ/yrC//&#xA;AOW2L/gWyP8AoSy/z4/Io/JnvY5r+hy6NfC0lmSZiofkh6V7MDuDmh7R7PlpcnASJbXs0ZcfAaSz&#xA;MBqZ5+U7sL3UEr8LRISPcMQP151vsmT4kx5BztFzL0nO3dg8Y8oeZl0G9lmeEzxTJwcKaMKGoIrt&#xA;nmPZHaf5TIZEcQkHUYM3AWW/8rX0/wD5YJf+CXOi/wBFmP8AmS+Ycr86O5PvLPmu219ZzDBJCYCO&#xA;XPdTy8GG1dumbfsztWGrB4YmPD+ObfhzCbEfM/8A5MjT/wDjNaf8nBnOdqf8aeP+tj+9xM398Pg9&#xA;KzuHYsO/NKJW8vwyftR3K0PsyOCP1ZzXtTAHTA90x9xcTWD0fFOvKDM3lnTSxqfRUfQNh+GbPsc3&#xA;pcf9VuwfQGJeeJn1nzRYaDAx4RkerTs0nxMf9jGK5zvbkzqdXDTx5Dn8efyi4uoPHMRCO/MrR1Oj&#xA;W15brxOnsEovaJ6KPuYLmX7S6MeBGcf8nt8D+2merx+kEdGSeW9UGqaJa3tayOlJf+Mi/C/4jN32&#xA;bqvHwRn1I3945uRinxRBY/8Amn/yj1v/AMxaf8m5M0/tV/i0f64/3MmjWfQPex3V4Z9Nt/LnmK3G&#xA;4ghjmpsC0SjiD/rR/D9GaXWQlgjp9TH+bEH4Db5jb4OPMGIjMPToru3ktFu1cfV3jEok7cCOVfuz&#xA;vI5oygJg+ki/g7ISFW820ZG1vUte8wTA+lDBN6HLsXjZUH+xjGcPo4nVZc+plyjGVfEED5RddjHG&#xA;ZTKa/lR/xz7/AP4yr/xHNh7J/wB3P+sPubdFyLM9QvYrGxnvJf7uBGkYePEVp9OdNqMwxY5TPKIt&#xA;y5SoWwf8tbOW7vNQ1253llYxo3+U55yEf8LnLezWE5J5NRLmTXz3P6HD0kbJkVDTj/h38wprQ/BZ&#xA;35onhSX4o6fJ/gynTH8n2kYcoZP07j7dmMP3eWuhejZ2rsHmwhhuPzOurWZeUVyssTj2a2NfwziO&#xA;CM+1ZQlylY/2Dr6vMR+OSK/L64l03WNR8vXJ+JWZ4j2LJs1P9ZaN9GX+z2Q4M+TTS77Hw/WN/gy0&#xA;p4ZGBTT8x9W+paCbZDSa+b0h4+mu7n9S/Tmw9pNX4Wn4B9WTb4df1fFs1c6jXew3zXpQ0vQ9CtGW&#xA;lwyzz3H+vL6e3+xA4/RnM9raXwMGGH8XqkfeeH7uTiZocMYhj+oWjWl/cWrCjQSPGf8AYsRmn1GI&#xA;48koH+EkNEo0SEPlLFPdP0nQJrSOS41D05mHxx1VeJ8KMK5uNNo9NOAMslS7tm+MIkblLdUtrO3u&#xA;2jtJ/rENAQ/gT2qNjmBq8WOE6hLii1zAB2QmYzB2KuxV6H+U9o3+5C7I+E+nEh8Tuzf8a52XsniP&#xA;7yfuH6T+hz9FHmXoWdk57zP8qo421O9dlBdIV4MRuKtvQ5wvspEHLM9RF12iG5emZ3TsXYq818z/&#xA;APkyNP8A+M1p/wAnBnD9qf8AGnj/AK2P73XZv74fB6VncOxYD+aepQm3tNLQ8pzJ68ijqoClVr/r&#xA;cj92ch7VamPDHEPqvi/QPnbg6yewiyjSkXR/LNv9a+EWdsHn9iq8mH37Zv8ASj8tpY8f8EN/lZcm&#xA;HogL6B5pott5q1TVbjWtKWlyJGZpyUChpK1Uc9j8J6UzhtFi1efNLPhHqs77dem7rsYnKXFFO7/T&#xA;fzPvrSS1unWSCUUkQG3WoBrSqhT+ObTPpu1csDCZuJ/qfobpQzEUf0Kn5Y6hLBc32i3AKSKTKkbb&#xA;EOp4SL8+mT9mNQYSnglsefxGx/QnRyomJTD80/8AlHrf/mLT/k3JmZ7Vf4tH+uP9zJs1n0D3olNJ&#xA;Gq+QLazArKbSN4P+MiLVfv6ZfHSfmOzow68Ar3jky4OLEB5MSh81mPyLNpZb/TBJ9WUHr6D1Yn9a&#xA;ZzsO1uHs84r9d8P+ad/1hxRm/dcPVldhpH6L/L+7hZaTy2c80/jzeImh/wBUUGdBg0fgdnSifqOO&#xA;RPvMf0cnJjDhxEeSA/Kj/jn3/wDxlX/iOYnsn/dz/rD7mGi5FV/NDVfR02HTYz+8u25SAdfTjNaf&#xA;S1Puyz2o1fDiGIc5nf3D9v3J1k6Fd6U6RpH5k6fZLDY0ggY+oImMBILf64Yj5ZrtHo+1MMOHH6Y8&#xA;69H6WqEM0RQ/QlfmfTfOSNHqmsgsY+MaToY/goSV2jpTc9aZgdqabWgjNn6bXtt3cmvNDJ9UnqOh&#xA;amup6Ra3y0rMgLgdnGzj6GBzvdBqRnwxyfzh9vX7XZY58UQWDwf+TZP+u/8A1CnOVx/8bHxP+4cI&#xA;f3/47lbz3DJpHmHT/MVuuxYLPTuybUP+vH8P0Zb29A6fU49TH4/D9cdvgy1I4ZiYUriWPzR58gji&#xA;Pq6dYqGJH2SqUZv+CchcqySGv7QiBvjx/o3+07MSfEy+Qa/Nn/ejTf8AUl/WuPtb9WP3S/Qut5hD&#xA;fmZoT2+oLqsS/uLqizEdFlUU/wCGUfgco9ptCYZBmH0z5+/9oY6vHR4u9hOcu4bK9KP5f/o+H6+J&#xA;hecf39fU+13pw2p4Z0mj/kzwo+LxcfX6v0bOVDwq35ov/kGP/Fv/ACXzJ/1n/pf7Nn+5/Fu/5Bj/&#xA;AMW/8l8f9Z/6X+zX9z+LY55gOhfXR+hhILbgOZkrQt/k8vi+/NF2l+W8T/B74K69/le7j5eG/TyS&#xA;5EeR1RFLOxCqoFSSdgAMwIxJNDm1vbfKui/ofRILRqeuR6lwR/vx9z93T6M9S7K0X5bBGB+rmfef&#xA;xTuMOPgjSbZsW15hpvlLz1o1482nBAxBQuHQo6/6r/xGcHpuyO0NNMyxV3cxR+brYYMsDsmv/IVf&#xA;+Kf+SGbD/Xf+j/sG39/+KT3yz/iz9/8Ap70uO3ocOPKvevD4aZtuzPzm/wCYry5X9jfh8T+JIPOX&#xA;lLXr7XU1LTArUROLBwjo8Z2O5HzFM0/bPZGoy6gZcXcOtEENGfBKUri2YfzVlX0zLFEDsZB6FfvA&#xA;J+7Dwdry2sD/AEq1n/FIry95Ba2vhqes3H12+Dc1WpZQ/ZmZt2I7bZkdndgcGTxc8uPJz8r77PNl&#xA;i01HikbKbectO1TUdDks9O4mWV09RWbjWMGpAJ9wPozYds6fLm05hi5ki/c254ylGgq+VtFOj6LB&#xA;ZOQZhV52XoXY1Ph0FBlnZei/LYBA/VzPvThx8EaTbNi2sNvfKmqR+dbfWdP4C2d1e5q1Cu3GTY9e&#xA;S+HfOZz9lZRro58dcJPq+6XzH2uJLDLxBIckx886He6zoy29nxM8UyzBGPHkArKQCdv265m9uaGe&#xA;pwCMPqEgfsI/S2ajGZxoJpotlLY6RZ2cpBlghSNyvSqihpmfosJxYYQPOMQGzHGogMPuPy+uJPNv&#xA;1wcP0S8ouJATvWvJo+NO7fhnN5PZ6UtZx7eCTxfsr3/Y4h0p8S/4WaapaPeaZd2iMFe4hkiVj0Bd&#xA;CoJ+/On1WI5MUoDnKJHzDmTjcSEi8h+Xr/RbC4S94iWeTkEU8qBRTcjbfNT2D2dk02OQyVci0abE&#xA;YA2hNR8qapqPnSPUbrgdLg9No/iqSIxUJx933PamY2o7Jy5tcMs68KNV8Ole9jPDKWSz9LMc6Zy0&#xA;FrWmpqWlXVi1B68ZVSegbqp+hgDmLrdMM+GWM/xD7en2sMkOKJCT+RdG1fSNPuLTUOAX1eUAVuWx&#xA;FGPyNNs1vYWizafHKGSvq2atNjlEUUND5W1JfPra0xT6jQupr8RLRelx4/M1yiHZWUdoHPtwc/8A&#xA;Y8NMRhPi8XROvMujDWNGnshQSsA0Dt0WRd1/oc2naei/M4JY+vT3t2bHxxpK/Inle40W0nkvAovL&#xA;hgCFPLjGvQV8SSTt7Zr+wey5aWEjP65fcGrTYTAb81Hz35W1LW5LF7Ip+5LJKHPGgcg8vcCnzyvt&#xA;7srLqjAwrawfj1RqcJnVMnv7C1v7OW0ukEkEw4uv6iPAjtm91GCGaBhMXEuRKIkKLx7zN5T1DQ5y&#xA;XBmsmNIrpRt/qt/K2ebdp9k5NLLfeHSX6+4uqzYDA+SRZqmh2KuxVciPI6oilnYgKqipJPQADDGJ&#xA;Joc0vTPI/kd7F01PU0H1qlbe3O/p1/ab/K8B2+fTuew+wziIy5R6+g7vM+f3e92On0/D6pc2b51T&#xA;mOxV2KuxV2KuxV2KuxV2KuxV2KuxV2KuxV2KuxV2KuxV2KuxV2KuxV2KuxV2KuxVTufq31eT61w+&#xA;r8T6vq04ce/LltT55Xl4eE8dcPW+XxQard5P5o/wN6r/AKK9b16mvo0+r1/2fxf8Dtnnvan5Cz4P&#xA;FxeX0/b+jZ1ebwv4WLZoXGV7P6l66/XPU+r/ALfo8ef0ctstw8HF674fLn9rKNXu9R8mf4KoP0RT&#xA;67T4vrH+9FO9K7fPhtne9i/kf8j9f9L6vx/Vdlp/D/h5/ay3Oicp2KuxV2KuxV2KuxV2KuxV2Kux&#xA;V2KuxV2KuxV2KuxV2KuxV2KuxV2KuxV2KuxV2Kv/2Q==</xmpGImg:image>
               </rdf:li>
            </rdf:Alt>
         </xmp:Thumbnails>
      </rdf:Description>
      <rdf:Description rdf:about=""
            xmlns:pdf="http://ns.adobe.com/pdf/1.3/">
         <pdf:Producer>Adobe PDF library 10.01</pdf:Producer>
      </rdf:Description>
      <rdf:Description rdf:about=""
            xmlns:dc="http://purl.org/dc/elements/1.1/">
         <dc:format>image/svg+xml</dc:format>
         <dc:title>
            <rdf:Alt>
               <rdf:li xml:lang="x-default">Logo_Green</rdf:li>
            </rdf:Alt>
         </dc:title>
      </rdf:Description>
      <rdf:Description rdf:about=""
            xmlns:xmpTPg="http://ns.adobe.com/xap/1.0/t/pg/"
            xmlns:stDim="http://ns.adobe.com/xap/1.0/sType/Dimensions#"
            xmlns:xmpG="http://ns.adobe.com/xap/1.0/g/">
         <xmpTPg:NPages>1</xmpTPg:NPages>
         <xmpTPg:HasVisibleTransparency>True</xmpTPg:HasVisibleTransparency>
         <xmpTPg:HasVisibleOverprint>False</xmpTPg:HasVisibleOverprint>
         <xmpTPg:MaxPageSize rdf:parseType="Resource">
            <stDim:w>23.109701</stDim:w>
            <stDim:h>5.876971</stDim:h>
            <stDim:unit>Centimeters</stDim:unit>
         </xmpTPg:MaxPageSize>
         <xmpTPg:PlateNames>
            <rdf:Seq>
               <rdf:li>Cyan</rdf:li>
               <rdf:li>Magenta</rdf:li>
               <rdf:li>Yellow</rdf:li>
            </rdf:Seq>
         </xmpTPg:PlateNames>
         <xmpTPg:SwatchGroups>
            <rdf:Seq>
               <rdf:li rdf:parseType="Resource">
                  <xmpG:groupName>Default Swatch Group</xmpG:groupName>
                  <xmpG:groupType>0</xmpG:groupType>
               </rdf:li>
            </rdf:Seq>
         </xmpTPg:SwatchGroups>
      </rdf:Description>
   </rdf:RDF>
</x:xmpmeta>
                                                                                                    
                                                                                                    
                                                                                                    
                                                                                                    
                                                                                                    
                                                                                                    
                                                                                                    
                                                                                                    
                                                                                                    
                                                                                                    
                                                                                                    
                                                                                                    
                                                                                                    
                                                                                                    
                                                                                                    
                                                                                                    
                                                                                                    
                                                                                                    
                                                                                                    
                                                                                                    
                           
<?xpacket end="w"?>
	</metadata>
<g>
	<path fill="#77CC00" d="M231.938,87.523h-32.5c-2.112,0-3.826,0.385-3.826,2.498v19.77c0,2.113,1.714,3.826,3.826,3.826h32.897
		c2.115,0,3.826,1.713,3.826,3.825v0.524c0,2.111-1.711,3.824-3.826,3.824h-43.287c-2.112,0-3.826-1.713-3.826-2.5V50.164
		c0-3.439,1.713-5.151,3.826-5.151h42.707c2.115,0,3.826,1.712,3.826,3.826v0.521c0,2.114-1.711,3.826-3.826,3.826h-32.317
		c-2.112,0-3.826,1.712-3.826,3.825v18.514c0,2.113,1.714,3.826,3.826,3.826h32.5c2.112,0,3.823,1.712,3.823,3.824v0.522
		C235.761,85.811,234.05,87.523,231.938,87.523z"/>
	<path fill="#77CC00" d="M251.583,117.964V48.838c0-2.114,1.714-3.826,3.825-3.826h19.746c10.054,0,18.122,3.084,24.204,9.254
		c6.082,6.169,9.122,14.141,9.122,23.913v10.495c0,9.808-3.04,17.779-9.122,23.914c-6.082,6.133-14.15,9.201-24.204,9.201h-19.746
		C253.298,121.791,251.583,120.078,251.583,117.964z M261.972,57.01v52.781c0,2.112,1.714,3.825,3.824,3.825h9.357
		c7.101,0,12.699-2.336,16.795-7.007s6.145-10.661,6.145-17.965v-10.59c0-7.236-2.049-13.188-6.145-17.861
		c-4.096-4.67-9.694-7.006-16.795-7.006h-9.357C263.686,53.186,261.972,54.898,261.972,57.01z"/>
	<path fill="#77CC00" d="M363.773,102.015h-26.815c-1.602,0-3.037,1-3.591,2.503l-5.434,14.767
		c-0.556,1.504-1.986,2.504-3.589,2.504h-2.352c-2.688,0-4.537-2.697-3.566-5.203l26.729-69.127c0.57-1.475,1.988-2.445,3.568-2.445
		h3.652c1.589,0,3.009,0.981,3.573,2.465l26.302,69.127c0.955,2.503-0.896,5.186-3.573,5.186h-2.371
		c-1.607,0-3.046-1.009-3.595-2.521l-5.344-14.732C366.822,103.023,365.384,102.015,363.773,102.015z M342.991,93.315h14.902
		c2.65,0,4.499-2.634,3.594-5.129l-10.798-29.833h-0.316l-10.974,29.816C338.482,90.666,340.331,93.315,342.991,93.315z"/>
	<path fill="#77CC00" d="M408.694,45.013c1.573,0,2.985,0.963,3.56,2.428l23.517,59.953h0.315l23.517-59.953
		c0.574-1.465,1.986-2.428,3.562-2.428h6.854c2.115,0,3.826,1.712,3.826,3.826v69.127c0,2.111-1.711,3.824-3.826,3.824h-2.736
		c-2.111,0-3.825-1.713-3.825-3.824V91.417l1.056-31.218l-0.266-0.053l-23.923,59.25c-0.583,1.446-1.986,2.394-3.547,2.394h-1.743
		c-1.561,0-2.964-0.947-3.548-2.395l-23.82-59.091l-0.264,0.053l1.002,31.06v26.549c0,2.111-1.71,3.824-3.826,3.824h-2.734
		c-2.112,0-3.826-1.713-3.826-3.824V48.839c0-2.114,1.714-3.826,3.826-3.826H408.694z"/>
	<path fill="#77CC00" d="M535.989,102.015h-26.813c-1.605,0-3.038,1-3.593,2.503l-5.434,14.767
		c-0.554,1.504-1.986,2.504-3.589,2.504h-2.351c-2.688,0-4.537-2.697-3.567-5.203l26.729-69.127
		c0.568-1.475,1.986-2.445,3.568-2.445h3.649c1.589,0,3.013,0.981,3.576,2.465l26.303,69.127c0.951,2.503-0.896,5.186-3.574,5.186
		h-2.37c-1.607,0-3.046-1.009-3.594-2.521l-5.345-14.732C539.036,103.023,537.601,102.015,535.989,102.015z M515.207,93.315h14.899
		c2.654,0,4.5-2.634,3.598-5.129l-10.798-29.833h-0.317l-10.974,29.816C510.695,90.666,512.544,93.315,515.207,93.315z"/>
	<path fill="#77CC00" d="M580.908,45.013c1.576,0,2.988,0.963,3.563,2.428l23.515,59.953h0.317l23.515-59.953
		c0.574-1.465,1.986-2.428,3.56-2.428h6.855c2.112,0,3.825,1.712,3.825,3.826v69.127c0,2.111-1.713,3.824-3.825,3.824h-2.736
		c-2.112,0-3.826-1.713-3.826-3.824V91.417l1.056-31.218l-0.265-0.053l-23.923,59.25c-0.586,1.446-1.988,2.394-3.548,2.394h-1.746
		c-1.558,0-2.964-0.947-3.548-2.395l-23.816-59.091l-0.264,0.053l1.002,31.06v26.549c0,2.111-1.715,3.824-3.825,3.824h-2.736
		c-2.111,0-3.826-1.713-3.826-3.824V48.839c0-2.114,1.715-3.826,3.826-3.826H580.908z"/>
</g>
<circle fill="#77CC00" cx="79.903" cy="83.364" r="75.861"/>
<g>
	<path fill="#F4F7FA" d="M109.061,53.125H50.745c-2.106,0-3.814-1.707-3.814-3.813v-0.577c0-2.104,1.708-3.811,3.814-3.811h58.315
		c2.107,0,3.812,1.706,3.812,3.811v0.577C112.873,51.418,111.167,53.125,109.061,53.125z"/>
	<path fill="#F4F7FA" d="M109.025,87.466H50.78c-2.124,0-3.85-1.725-3.85-3.85v-0.504c0-2.125,1.726-3.85,3.85-3.85h58.245
		c2.125,0,3.847,1.724,3.847,3.85v0.504C112.873,85.742,111.15,87.466,109.025,87.466z"/>
	<path fill="#F4F7FA" d="M109.078,121.806H50.728c-2.098,0-3.797-1.699-3.797-3.795V117.4c0-2.098,1.699-3.795,3.797-3.795h58.351
		c2.095,0,3.794,1.697,3.794,3.795v0.611C112.873,120.107,111.173,121.806,109.078,121.806z"/>
	<path opacity="0.7" fill="#F4F7FA" enable-background="new    " d="M66.979,70.295H50.865c-2.17,0-3.935-1.761-3.935-3.933v-0.335
		c0-2.172,1.764-3.933,3.935-3.933h16.113c2.17,0,3.932,1.761,3.932,3.933v0.335C70.909,68.533,69.148,70.295,66.979,70.295z"/>
	<path opacity="0.7" fill="#F4F7FA" enable-background="new    " d="M67.537,104.636H51.146c-2.094,0-3.793-1.698-3.793-3.795
		v-0.612c0-2.097,1.699-3.794,3.793-3.794h16.391c2.098,0,3.793,1.697,3.793,3.794v0.612
		C71.332,102.938,69.635,104.636,67.537,104.636z"/>
</g>
</svg>
